<svg width="41" height="22" viewBox="0 0 41 22" fill="none" xmlns="http://www.w3.org/2000/svg">
<path d="M27.3389 0.75L27.4111 0.875L29.9863 5.34082L32.5898 0.874023L32.6621 0.75H37.2959L37.0684 1.12891L32.627 8.50391L39.873 21.377L40.082 21.75H35.3545L35.2832 21.6172L29.9766 11.6172L27.3369 16.126L27.2646 16.25H22.5518L22.7871 15.8682L27.3467 8.49805L22.9023 1.12891L22.6738 0.75H27.3389Z" fill="white" stroke="white" stroke-width="0.5"/>
<path d="M24.3975 0.75V4.19434H20.0918V16.25H16.209V4.19434H7.75V0.75H24.3975Z" fill="white" stroke="white" stroke-width="0.5"/>
<path d="M7.07227 0.75C8.22617 0.75 9.24059 0.946444 10.1084 1.34766H10.1094C10.9802 1.74352 11.6645 2.30497 12.1523 3.03418L12.3242 3.31348C12.699 3.97744 12.8887 4.7271 12.8975 5.55664L12.9004 5.80957H9.05273L9.03223 5.58203C8.99038 5.12238 8.80886 4.78447 8.49609 4.54297L8.49316 4.54102C8.18428 4.29559 7.72021 4.15529 7.06543 4.15527C6.73952 4.15527 6.46363 4.18651 6.23438 4.24609L6.01953 4.31543C5.74961 4.42094 5.56602 4.55912 5.44922 4.71973L5.44727 4.72168C5.3285 4.88135 5.26654 5.06495 5.2627 5.28027V5.28613C5.25507 5.46162 5.28891 5.60431 5.35547 5.72266L5.4209 5.81836C5.49341 5.91227 5.58722 6.00135 5.70605 6.08398C5.87512 6.19344 6.0835 6.2937 6.33301 6.38281L6.5293 6.44824C6.59677 6.4695 6.66647 6.48982 6.73828 6.50977L7.19629 6.62207L7.19922 6.62305L8.44531 6.90625H8.44629C9.18087 7.06573 9.83462 7.2797 10.4043 7.5498H10.4033C10.977 7.81951 11.4647 8.14315 11.8613 8.52441L12.0078 8.6709C12.3397 9.01937 12.5973 9.41414 12.7793 9.85352L12.8525 10.0439C13.012 10.4958 13.0923 10.9898 13.0967 11.5234V11.5273C13.0923 12.3686 12.9048 13.1163 12.5283 13.7627L12.3555 14.0342C11.9257 14.6498 11.3343 15.1339 10.5908 15.4902L10.2637 15.6348C9.36894 16.0006 8.30042 16.1787 7.06543 16.1787C5.97918 16.1787 5.00583 16.0367 4.14941 15.7471L3.79004 15.6143C2.84383 15.2328 2.09959 14.6484 1.56738 13.8604C1.03173 13.067 0.764652 12.0755 0.75 10.9033L0.74707 10.6504H4.60156L4.61621 10.8857C4.64246 11.3181 4.75647 11.6612 4.94629 11.9277L5.02246 12.0264C5.20732 12.2495 5.44943 12.4251 5.75488 12.5518H5.75391C6.111 12.698 6.53225 12.7744 7.02246 12.7744C7.47483 12.7744 7.84569 12.7134 8.14062 12.5996L8.1416 12.5986L8.35352 12.5049C8.54957 12.4041 8.69919 12.2827 8.80859 12.1445L8.9043 12.002C8.98577 11.8563 9.0268 11.6963 9.03027 11.5186C9.02568 11.2992 8.95924 11.1231 8.83496 10.9775L8.83398 10.9756C8.70332 10.8188 8.48665 10.6681 8.16309 10.5352L8.15918 10.5332C7.83678 10.3945 7.41692 10.2636 6.89551 10.1426H6.89453L5.37598 9.78711V9.78809C4.08884 9.49292 3.05455 9.01151 2.29004 8.33203L2.28906 8.33105C1.504 7.62803 1.12098 6.67958 1.12598 5.51562C1.12149 4.5686 1.37788 3.72858 1.89844 3.00586L2.10059 2.74414C2.59552 2.15175 3.23928 1.68398 4.02441 1.33887L4.36719 1.2002C5.17917 0.89854 6.08203 0.750018 7.07227 0.75Z" fill="white" stroke="white" stroke-width="0.5"/>
</svg>
